<svg xmlns="http://www.w3.org/2000/svg" viewBox="0 0 24 24" width="64" height="64">
  <!-- Background -->
  <rect width="24" height="24" fill="#08090E"/>

  <!-- Circuit Lines (Subtle Tech Element) -->
  <path d="M4 4 L8 4 L8 6 L10 6 M12 6 L14 6 L14 4 L18 4 M18 6 L18 8 M6 8 L6 12 L4 12 M8 12 L10 12 M12 12 L14 12 L14 10 M16 10 L16 12 L20 12 M20 8 L20 6 M10 14 L8 14 L8 16 M6 16 L6 20 L4 20 M8 18 L10 18 M12 18 L14 18 M16 16 L16 20 L20 20" stroke="#6C5CE7" stroke-width="0.5" fill="none" opacity="0.3"/>

  <!-- Stylized K -->
  <path d="M8 6 L8 18 M8 12 L14 6 L16 6 L10 12 L16 18 L14 18 Z" fill="#6C5CE7"/>
</svg>